<svg version="1.2" xmlns="http://www.w3.org/2000/svg" viewBox="0 0 133 95" width="80" height="57">
	<title>logo-dark-svg</title>
	<style>
		.s0 { fill: #4c9fe3 } 
		.s1 { fill: #316a99 } 
		.s2 { fill: #a1abbe } 
	</style>
	<g id="Layer_2">
		<g id="_hkcGc1TWxMQnvrJ-o7pxz">
			<g id="_2pGrrHDisTubxdFeOQ9h1">
				<path id="_fclVC_gW3knTSnF4jsxLl" class="s0" d="m53.5 19.8l-5.3-5.1q-0.3-0.3-0.7-0.5-0.4-0.2-0.9-0.1-0.4 0-0.8 0.1-0.4 0.2-0.7 0.5l-31.2 32.3q-0.3 0.3-0.4 0.7-0.2 0.4-0.2 0.9 0 0.4 0.2 0.8 0.2 0.4 0.5 0.7l31.8 30.7q0.3 0.3 0.7 0.5 0.4 0.1 0.9 0.1 0.4 0 0.8-0.2 0.4-0.1 0.7-0.5l31.1-32.2q0.3-0.3 0.5-0.7 0.1-0.4 0.1-0.9 0-0.4-0.1-0.8-0.2-0.4-0.5-0.7l-12-11.7 8-8.2 15.1 14.6c0.9 0.9 1.6 1.9 2.1 3 0.5 1.1 0.8 2.4 0.8 3.6 0 1.2-0.2 2.4-0.7 3.6-0.4 1.1-1.1 2.2-1.9 3.1l-37.2 38.5c-0.9 0.9-1.9 1.6-3 2.1-1.2 0.4-2.4 0.7-3.6 0.7-1.3 0.1-2.5-0.2-3.6-0.6-1.2-0.5-2.2-1.1-3.1-2l-38-36.7c-0.9-0.9-1.6-1.9-2.1-3-0.5-1.2-0.8-2.4-0.8-3.6 0-1.2 0.2-2.5 0.7-3.6 0.4-1.2 1.1-2.2 1.9-3.1l37.2-38.5c0.9-0.9 1.9-1.6 3-2.1 1.2-0.5 2.4-0.7 3.6-0.8 1.2 0 2.5 0.2 3.6 0.7 1.1 0.4 2.2 1.1 3.1 2l8.4 8.1z"/>
				<path id="_2yC6JlP49xF4W450B5ghS" class="s1" d="m76.2 75l5.3 5.1q0.3 0.3 0.7 0.5 0.4 0.1 0.8 0.1 0.5 0 0.9-0.1 0.4-0.2 0.7-0.5l31.1-32.3q0.4-0.3 0.5-0.7 0.2-0.4 0.2-0.8 0-0.5-0.2-0.9-0.2-0.4-0.5-0.7l-31.8-30.8q-0.3-0.3-0.7-0.4-0.4-0.2-0.9-0.2-0.4 0-0.8 0.2-0.4 0.2-0.7 0.5l-31.2 32.3q-0.3 0.3-0.4 0.7-0.2 0.4-0.2 0.8 0 0.4 0.2 0.8 0.1 0.4 0.4 0.7l12.1 11.7-8 8.3-15.1-14.7c-0.9-0.8-1.6-1.8-2.1-3-0.5-1.1-0.8-2.3-0.8-3.6 0-1.2 0.2-2.4 0.7-3.6 0.4-1.1 1.1-2.1 1.9-3l37.2-38.5c0.9-0.9 1.9-1.6 3-2.1 1.2-0.5 2.4-0.8 3.6-0.8 1.2 0 2.5 0.2 3.6 0.7 1.1 0.4 2.2 1.1 3.1 1.9l38 36.8c0.9 0.8 1.6 1.8 2.1 3 0.5 1.1 0.7 2.3 0.7 3.5 0.1 1.3-0.2 2.5-0.6 3.7-0.5 1.1-1.1 2.1-2 3l-37.1 38.5c-0.9 0.9-1.9 1.6-3 2.1-1.2 0.5-2.4 0.8-3.6 0.8-1.2 0-2.5-0.2-3.6-0.7-1.2-0.4-2.2-1.1-3.1-1.9l-8.4-8.1z"/>
			</g>
			<path id="_kCfronMV8leRKdbxpuZJG" fill-rule="evenodd" class="s2" d="m185.9 42.7q0 1.1-0.1 2.2 0 1.1-0.2 2.1-0.2 1.1-0.5 2.1-0.3 1-0.7 2.1-0.7 1.8-1.8 3.5-1.1 1.6-2.5 3-1.4 1.4-3.1 2.5-1.7 1.1-3.6 1.8-1 0.4-2 0.7-1.1 0.3-2.2 0.5-1.1 0.2-2.2 0.2-1.1 0.1-2.2 0.1h-15.9v-41.6h15.9q1.1 0 2.2 0.1 1.1 0.1 2.2 0.3 1.1 0.2 2.2 0.5 1 0.3 2 0.7 1 0.3 1.9 0.8 0.9 0.4 1.7 1 0.8 0.5 1.6 1.1 0.8 0.7 1.5 1.3 0.7 0.8 1.3 1.5 0.6 0.8 1.2 1.6 0.5 0.8 1 1.7 0.4 0.9 0.8 1.8 0.4 1 0.7 2.1 0.3 1 0.5 2.1 0.2 1 0.2 2.1 0.1 1.1 0.1 2.1zm-7.9 0q0-0.7 0-1.5-0.1-0.8-0.2-1.6-0.1-0.7-0.3-1.5-0.2-0.8-0.4-1.5-0.2-0.6-0.5-1.3-0.3-0.6-0.6-1.1-0.3-0.6-0.7-1.2-0.4-0.5-0.9-1-0.4-0.5-0.9-0.9-0.4-0.4-1-0.8-0.5-0.3-1-0.6-0.6-0.4-1.2-0.6-0.6-0.2-1.3-0.4-0.7-0.2-1.4-0.4-0.7-0.1-1.4-0.1-0.7-0.1-1.4-0.1h-8.1v29.3h8.1q0.7 0 1.4 0 0.7-0.1 1.4-0.2 0.7-0.2 1.4-0.3 0.7-0.2 1.3-0.5 0.6-0.2 1.2-0.5 0.5-0.3 1.1-0.7 0.5-0.4 0.9-0.8 0.5-0.4 0.9-0.9 0.5-0.5 0.9-1 0.4-0.6 0.7-1.2 0.3-0.5 0.6-1.2 0.3-0.6 0.5-1.2 0.2-0.7 0.4-1.5 0.2-0.8 0.3-1.5 0.1-0.8 0.2-1.6 0-0.8 0-1.6zm25.8-9.1q0.7 0 1.3 0 0.7 0.1 1.3 0.2 0.7 0.1 1.3 0.3 0.6 0.1 1.2 0.3 0.6 0.3 1.2 0.5 0.5 0.3 1 0.6 0.5 0.4 1 0.7 0.5 0.4 0.9 0.8 0.4 0.5 0.8 1 0.4 0.5 0.7 1 0.4 0.5 0.6 1.1 0.3 0.6 0.5 1.2 0.3 0.6 0.5 1.3 0.2 0.7 0.3 1.5 0.1 0.7 0.2 1.4 0 0.7 0 1.4 0 0.2 0 0.4 0 0.1 0 0.3 0 0.2 0 0.3 0 0.2 0 0.4 0 0.1-0.1 0.2 0 0.1 0 0.2-0.1 0.1-0.1 0.2 0 0.1-0.1 0.2 0 0.1-0.1 0.2 0 0-0.1 0.1-0.1 0-0.1 0.1-0.1 0-0.2 0.1-0.1 0-0.2 0-0.1 0-0.2 0.1-0.1 0-0.2 0-0.1 0-0.2 0h-18.3c0.2 3 1 5.2 2.4 6.7q0.6 0.5 1.2 0.9 0.7 0.4 1.4 0.7 0.8 0.3 1.5 0.4 0.8 0.1 1.6 0.1 0.4 0 0.7 0 0.4 0 0.8-0.1 0.4 0 0.7-0.1 0.4-0.1 0.8-0.2 0.3-0.1 0.5-0.2 0.3-0.1 0.6-0.2 0.3-0.1 0.6-0.2 0.2-0.2 0.5-0.3 0.9-0.5 1.6-0.9 0.2-0.1 0.4-0.2 0.1 0 0.3-0.1 0.2 0 0.3-0.1 0.2 0 0.4 0 0.2 0 0.4 0 0.2 0.1 0.3 0.2 0.2 0.1 0.3 0.2 0.2 0.1 0.3 0.3l2.1 2.6q-0.3 0.3-0.6 0.6-0.3 0.3-0.7 0.6-0.3 0.3-0.7 0.6-0.3 0.2-0.7 0.5-0.3 0.2-0.7 0.4-0.4 0.2-0.8 0.4-0.4 0.2-0.8 0.4-0.3 0.1-0.7 0.3-0.4 0.1-0.8 0.2-0.4 0.2-0.9 0.3-0.4 0.1-0.8 0.1-0.4 0.1-0.8 0.2-0.4 0-0.8 0.1-0.4 0-0.8 0-0.4 0.1-0.8 0.1-0.4 0-0.8 0-0.7 0-1.5 0-0.7-0.1-1.4-0.2-0.7-0.2-1.5-0.4-0.7-0.1-1.4-0.4-0.6-0.2-1.2-0.6-0.6-0.3-1.2-0.7-0.6-0.3-1.1-0.8-0.6-0.4-1.1-0.9-0.5-0.5-0.9-1.1-0.5-0.6-0.9-1.2-0.3-0.7-0.7-1.3-0.3-0.7-0.5-1.4-0.3-0.8-0.5-1.7-0.3-0.8-0.4-1.7-0.1-0.8-0.2-1.7-0.1-0.9-0.1-1.7 0-0.8 0.1-1.5 0.1-0.7 0.2-1.4 0.1-0.7 0.3-1.4 0.2-0.7 0.4-1.4 0.3-0.7 0.6-1.3 0.3-0.6 0.6-1.2 0.4-0.6 0.8-1.1 0.4-0.6 0.8-1.1 0.5-0.5 1-0.9 0.6-0.5 1.1-0.9 0.6-0.3 1.2-0.7 0.6-0.3 1.2-0.6 0.7-0.3 1.4-0.5 0.8-0.2 1.5-0.4 0.7-0.1 1.5-0.2 0.7 0 1.5 0zm0.1 5.1q-0.6-0.1-1.3 0-0.6 0.1-1.3 0.3-0.6 0.3-1.2 0.6-0.5 0.4-1 0.8-0.5 0.5-0.9 1.1-0.4 0.6-0.6 1.2-0.3 0.7-0.5 1.3-0.2 0.7-0.3 1.4h13.4q0-0.3 0-0.7-0.1-0.3-0.1-0.6 0-0.3-0.1-0.7-0.1-0.3-0.2-0.6-0.1-0.3-0.2-0.6-0.1-0.3-0.2-0.5-0.2-0.3-0.4-0.6-0.1-0.2-0.3-0.4-0.2-0.3-0.5-0.5-0.2-0.2-0.4-0.4-0.3-0.2-0.6-0.3-0.2-0.2-0.5-0.3-0.4-0.1-0.7-0.2-0.3-0.1-0.7-0.2-0.3-0.1-0.7-0.1-0.3-0.1-0.7 0zm44.1-4.7l-11.8 29.6h-6.4l-11.8-29.6h5.9q0.2 0 0.3 0 0.2 0 0.4 0.1 0.2 0 0.3 0.1 0.2 0.1 0.3 0.2 0.1 0.1 0.3 0.2 0.1 0.1 0.2 0.2 0.1 0.1 0.1 0.3 0.1 0.1 0.1 0.3l5.8 15.7q0.4 1.4 0.8 2.8 0.3 1.3 0.6 2.6 0.2-1.3 0.6-2.6 0-0.4 0.1-0.7 0.1-0.4 0.2-0.7 0.1-0.3 0.3-0.7 0.1-0.3 0.2-0.6l5.8-15.8q0.1-0.2 0.2-0.3 0-0.2 0.1-0.3 0.1-0.1 0.2-0.2 0.1-0.1 0.3-0.2 0.1-0.1 0.2-0.2 0.2-0.1 0.4-0.1 0.1-0.1 0.3-0.1 0.1 0 0.3 0zm20.3 29.5h-15.7v-41.6h14.3q0.9 0 1.8 0 0.9 0.1 1.8 0.2 0.8 0.1 1.7 0.2 0.9 0.2 1.7 0.4 0.7 0.2 1.3 0.4 0.6 0.2 1.2 0.5 0.6 0.3 1.2 0.6 0.5 0.3 1.1 0.7 0.4 0.4 0.8 0.7 0.4 0.4 0.8 0.9 0.3 0.4 0.6 0.9 0.3 0.5 0.5 1 0.2 0.5 0.4 1.1 0.2 0.6 0.3 1.2 0.1 0.5 0.1 1.1 0.1 0.6 0.1 1.2 0 0.4-0.1 0.7 0 0.4 0 0.7-0.1 0.4-0.2 0.7-0.1 0.4-0.2 0.7-0.1 0.4-0.2 0.7-0.2 0.3-0.3 0.6-0.2 0.3-0.4 0.6-0.2 0.3-0.4 0.6-0.2 0.3-0.5 0.6-0.3 0.3-0.6 0.6-0.3 0.2-0.6 0.5-0.3 0.2-0.6 0.4-0.4 0.3-0.8 0.5-0.4 0.3-0.8 0.5-0.4 0.2-0.9 0.3-0.4 0.2-0.8 0.4 8.6 1.9 8.6 9.2 0 0.7-0.1 1.3-0.1 0.6-0.2 1.2-0.1 0.6-0.3 1.2-0.2 0.6-0.5 1.2-0.2 0.6-0.5 1.1-0.3 0.5-0.7 1-0.4 0.5-0.8 1-0.4 0.4-0.9 0.8-0.5 0.4-1.1 0.8-0.5 0.4-1.1 0.7-0.6 0.3-1.3 0.6-0.6 0.2-1.2 0.4-0.8 0.3-1.6 0.5-0.8 0.1-1.6 0.3-0.8 0.1-1.7 0.1-0.8 0.1-1.6 0.1zm-0.1-18.3h-7.9v12.2h7.8q0.5 0.1 1 0 0.4 0 0.9-0.1 0.4 0 0.9-0.1 0.4-0.1 0.9-0.3 0.3-0.1 0.6-0.2 0.3-0.2 0.6-0.3 0.3-0.2 0.6-0.4 0.2-0.2 0.5-0.5 0.2-0.2 0.4-0.4 0.2-0.2 0.3-0.5 0.2-0.2 0.3-0.5 0.2-0.3 0.3-0.6 0.1-0.3 0.1-0.6 0.1-0.3 0.2-0.6 0-0.3 0-0.6 0.1-0.3 0.1-0.6 0-0.3-0.1-0.6 0-0.3-0.1-0.6 0-0.4-0.1-0.7-0.1-0.2-0.2-0.5-0.1-0.3-0.2-0.6-0.2-0.2-0.3-0.5-0.2-0.2-0.4-0.4-0.2-0.2-0.4-0.4-0.3-0.2-0.6-0.4-0.2-0.2-0.5-0.3-0.3-0.2-0.6-0.3-0.4-0.1-0.7-0.2-0.4-0.1-0.8-0.2-0.5 0-0.9-0.1-0.4 0-0.9-0.1-0.4 0-0.9 0zm-7.8-17.3v-0.1zm0.1 12.1h6.1q0.8 0 1.6 0 0.8-0.1 1.5-0.3 0.8-0.2 1.5-0.5 0.8-0.3 1.4-0.7 0.6-0.4 1-0.9 0.4-0.5 0.6-1.1 0.3-0.6 0.4-1.3 0.1-0.6 0-1.2 0-3.3-1.8-4.7-1.8-1.4-5.8-1.4h-6.5zm29.8-19.2h7.1v42.8h-7.1zm27.7 12.8q0.8 0 1.5 0.1 0.8 0 1.6 0.1 0.7 0.2 1.4 0.4 0.8 0.2 1.5 0.5 0.6 0.2 1.3 0.5 0.6 0.3 1.2 0.7 0.5 0.4 1.1 0.8 0.5 0.5 1 1 0.5 0.5 0.9 1 0.4 0.6 0.8 1.2 0.4 0.6 0.7 1.2 0.3 0.7 0.5 1.3 0.3 0.8 0.5 1.6 0.2 0.8 0.3 1.5 0.1 0.8 0.2 1.6 0 0.8 0 1.6 0 0.8 0 1.7-0.1 0.8-0.2 1.6-0.1 0.8-0.3 1.5-0.2 0.8-0.5 1.6-0.2 0.6-0.5 1.3-0.3 0.6-0.7 1.2-0.4 0.6-0.8 1.2-0.4 0.6-0.9 1.1-0.5 0.5-1 0.9-0.6 0.5-1.1 0.8-0.6 0.4-1.2 0.7-0.7 0.3-1.3 0.6-0.7 0.3-1.5 0.5-0.7 0.2-1.4 0.3-0.8 0.1-1.6 0.2-0.7 0.1-1.5 0.1-0.8 0-1.5-0.1-0.8-0.1-1.6-0.2-0.7-0.1-1.4-0.3-0.8-0.2-1.5-0.5-0.6-0.3-1.3-0.6-0.6-0.3-1.2-0.7-0.6-0.3-1.1-0.8-0.5-0.4-1-0.9-0.5-0.5-1-1.1-0.4-0.6-0.8-1.2-0.4-0.6-0.7-1.2-0.3-0.6-0.5-1.3-0.3-0.8-0.5-1.6-0.2-0.7-0.3-1.5-0.2-0.8-0.2-1.6-0.1-0.9-0.1-1.7 0-0.8 0.1-1.6 0-0.8 0.2-1.6 0.1-0.8 0.3-1.5 0.2-0.8 0.5-1.6 0.4-1.3 1.2-2.5 0.7-1.2 1.7-2.2 1-1 2.2-1.8 1.1-0.8 2.5-1.3 0.7-0.2 1.4-0.4 0.8-0.2 1.5-0.4 0.8-0.1 1.6-0.2 0.7 0 1.5 0zm0 25q0.8 0.1 1.6-0.1 0.7-0.1 1.4-0.4 0.8-0.4 1.4-0.9 0.6-0.4 1.1-1.1 1.7-2.4 1.7-7.2 0-4.8-1.7-7.3-0.5-0.7-1.1-1.2-0.6-0.5-1.3-0.8-0.8-0.3-1.5-0.5-0.8-0.1-1.6-0.1-0.8 0-1.6 0.1-0.8 0.2-1.5 0.5-0.7 0.3-1.3 0.8-0.7 0.5-1.1 1.2-1.8 2.5-1.8 7.2 0 4.8 1.8 7.3 0.5 0.6 1.1 1.1 0.6 0.5 1.3 0.8 0.7 0.3 1.5 0.5 0.8 0.1 1.6 0.1zm30.4-25q0.4 0 0.8 0 0.5 0 0.9 0.1 0.5 0 0.9 0.1 0.5 0 0.9 0.1 0.4 0.1 0.8 0.2 0.4 0.1 0.8 0.3 0.4 0.1 0.7 0.3 0.4 0.1 0.8 0.3h8.5v2.7q0 0.1 0 0.2-0.1 0.2-0.1 0.3-0.1 0.1-0.1 0.2-0.1 0.1-0.2 0.3-0.1 0.1-0.2 0.1-0.2 0.1-0.3 0.2-0.2 0.1-0.3 0.1-0.2 0.1-0.3 0.1l-2.7 0.5q0.2 0.4 0.3 0.8 0.1 0.4 0.2 0.8 0 0.4 0.1 0.8 0 0.5 0 0.9 0 0.5 0 1-0.1 0.5-0.2 1.1-0.1 0.5-0.3 0.9-0.1 0.5-0.4 1-0.2 0.4-0.5 0.8-0.2 0.5-0.5 0.8-0.3 0.4-0.7 0.8-0.3 0.3-0.7 0.6-0.4 0.3-0.8 0.6-0.5 0.3-0.9 0.5-0.5 0.3-1 0.5-0.5 0.2-0.9 0.3-0.6 0.2-1.2 0.3-0.5 0.1-1.1 0.2-0.6 0.1-1.2 0.2-0.6 0-1.1 0-0.5 0-0.9 0-0.4 0-0.8-0.1-0.4 0-0.8-0.1-0.4 0-0.8-0.1-1.4 0.8-1.4 1.9 0 0.2 0.1 0.4 0 0.2 0.1 0.4 0.1 0.1 0.3 0.3 0.2 0.1 0.3 0.2 0.3 0.1 0.6 0.2 0.2 0.1 0.5 0.2 0.3 0 0.5 0.1 0.3 0.1 0.6 0.1 1.3 0.1 3 0.2c1.1 0 2.3 0.1 3.5 0.2q0.4 0 0.9 0.1 0.4 0 0.8 0.1 0.5 0 0.9 0.1 0.4 0.1 0.9 0.2 0.4 0.1 0.7 0.2 0.4 0.1 0.8 0.2 0.4 0.2 0.7 0.3 0.4 0.2 0.8 0.4 0.3 0.2 0.6 0.4 0.3 0.3 0.6 0.5 0.2 0.3 0.5 0.6 0.2 0.3 0.4 0.6 0.2 0.4 0.4 0.9 0.2 0.4 0.3 0.8 0.1 0.4 0.1 0.9 0 0.4 0 0.9 0 0.5 0 1-0.1 0.5-0.2 0.9-0.2 0.5-0.3 1-0.2 0.4-0.5 0.9-0.2 0.5-0.5 0.9-0.3 0.5-0.7 0.9-0.3 0.4-0.7 0.8-0.4 0.3-0.9 0.7-0.5 0.3-1 0.7-0.5 0.3-1.1 0.6-0.6 0.3-1.1 0.5-0.6 0.3-1.2 0.5-0.8 0.2-1.5 0.4-0.8 0.2-1.5 0.3-0.8 0.1-1.6 0.1-0.7 0.1-1.5 0.1-0.7 0-1.5-0.1-0.7 0-1.4-0.1-0.8-0.1-1.5-0.2-0.7-0.1-1.4-0.3-0.6-0.1-1.1-0.3-0.5-0.2-1.1-0.4-0.5-0.2-1-0.5-0.5-0.2-0.9-0.5-0.4-0.2-0.8-0.5-0.3-0.3-0.6-0.6-0.3-0.3-0.6-0.7-0.2-0.3-0.5-0.7-0.2-0.3-0.3-0.7-0.2-0.3-0.3-0.7-0.1-0.4-0.1-0.8-0.1-0.4-0.1-0.7 0-0.5 0.1-1 0.1-0.5 0.2-0.9 0.2-0.5 0.4-0.9 0.3-0.4 0.6-0.7 0.4-0.4 0.8-0.7 0.4-0.4 0.8-0.7 0.5-0.3 0.9-0.5 0.5-0.2 1-0.4-0.3-0.1-0.5-0.3-0.3-0.2-0.5-0.4-0.2-0.2-0.4-0.4-0.2-0.2-0.4-0.5-0.1-0.3-0.3-0.6-0.1-0.3-0.2-0.7-0.1-0.3-0.1-0.6 0-0.4 0-0.7 0-0.2 0-0.4 0-0.1 0-0.3 0.1-0.2 0.1-0.3 0.1-0.2 0.1-0.4 0.1-0.2 0.2-0.3 0-0.2 0.1-0.4 0.1-0.2 0.2-0.3 0.1-0.2 0.2-0.4 0.1-0.2 0.3-0.3 0.1-0.2 0.3-0.4 0.1-0.1 0.3-0.3 0.1-0.1 0.3-0.3 0.2-0.2 0.4-0.3 0.2-0.2 0.4-0.3 0.2-0.1 0.5-0.3 0.2-0.1 0.4-0.2-0.5-0.3-1-0.6-0.5-0.4-1-0.8-0.4-0.4-0.8-0.8-0.4-0.5-0.7-1-0.3-0.5-0.6-1.1-0.2-0.6-0.4-1.2-0.2-0.6-0.2-1.2-0.1-0.6-0.1-1.2 0-0.6 0-1.1 0.1-0.5 0.2-1 0.1-0.5 0.3-1 0.2-0.5 0.4-0.9 0.2-0.5 0.5-0.9 0.2-0.4 0.5-0.8 0.4-0.4 0.7-0.7 0.3-0.3 0.7-0.6 0.4-0.4 0.9-0.6 0.4-0.3 0.9-0.6 0.5-0.2 1-0.4 0.4-0.2 0.9-0.4 0.6-0.1 1.2-0.3 0.6-0.1 1.2-0.2 0.6 0 1.2-0.1 0.6 0 1.3 0zm7.8 31.3q0 0.1 0 0.1 0 0 0 0zm-0.1-0.3q0-0.2-0.1-0.4 0-0.2-0.1-0.4-0.1-0.1-0.3-0.3-0.1-0.1-0.3-0.2-0.1-0.2-0.3-0.3-0.2-0.1-0.4-0.2-0.2 0-0.4-0.1-0.2-0.1-0.5-0.2-0.2 0-0.5-0.1-0.3 0-0.5-0.1-0.3 0-0.6-0.1-1.2-0.1-2.5-0.2l-2.8-0.1c-0.9 0-1.8-0.1-2.7-0.3q-0.3 0.2-0.6 0.4-0.2 0.1-0.5 0.3-0.2 0.2-0.4 0.4-0.2 0.3-0.4 0.5-0.2 0.2-0.4 0.5-0.1 0.2-0.2 0.5-0.1 0.2-0.1 0.5-0.1 0.3-0.1 0.6 0 0.2 0 0.4 0.1 0.2 0.1 0.3 0.1 0.2 0.1 0.4 0.1 0.2 0.2 0.3 0.1 0.2 0.2 0.4 0.2 0.2 0.3 0.3 0.2 0.2 0.4 0.3 0.1 0.1 0.3 0.2 0.3 0.2 0.6 0.3 0.2 0.1 0.5 0.2 0.3 0.1 0.6 0.2 0.3 0 0.5 0.1 0.4 0.1 0.9 0.1 0.4 0.1 0.8 0.1 0.4 0 0.8 0 0.4 0.1 0.9 0.1 0.4 0 0.8-0.1 0.4 0 0.9 0 0.4-0.1 0.8-0.1 0.5-0.1 0.9-0.1 0.3-0.1 0.6-0.2 0.3-0.1 0.6-0.2 0.3-0.1 0.6-0.2 0.3-0.1 0.6-0.3 0.2-0.1 0.4-0.2 0.1-0.2 0.3-0.3 0.2-0.2 0.4-0.4 0.1-0.1 0.2-0.3 0.1-0.2 0.2-0.4 0.1-0.2 0.2-0.5 0-0.2 0-0.4 0.1-0.2 0.1-0.4 0-0.2-0.1-0.3zm-7.7-16.5q0.2 0 0.5 0 0.3 0 0.6 0 0.3-0.1 0.6-0.2 0.3 0 0.6-0.1 0.2-0.1 0.4-0.2 0.2-0.1 0.4-0.2 0.2-0.2 0.4-0.3 0.2-0.2 0.4-0.3 0.2-0.2 0.3-0.4 0.1-0.1 0.3-0.3 0.1-0.2 0.2-0.4 0.1-0.2 0.2-0.5 0.1-0.2 0.1-0.4 0.1-0.3 0.1-0.5 0.1-0.3 0.1-0.6 0-0.2 0-0.5 0-0.4 0-0.9-0.1-0.5-0.3-0.9-0.1-0.5-0.4-0.9-0.3-0.4-0.6-0.7-0.4-0.4-0.9-0.6-0.4-0.3-0.9-0.5-0.5-0.1-1.1-0.2-0.5 0-1 0-0.6 0-1.1 0-0.5 0.1-1 0.2-0.5 0.2-1 0.5-0.5 0.2-0.9 0.6-0.3 0.3-0.6 0.7-0.2 0.4-0.4 0.9-0.2 0.4-0.2 0.9-0.1 0.5-0.1 0.9 0 0.3 0 0.5 0 0.3 0.1 0.5 0 0.3 0.1 0.5 0.1 0.2 0.1 0.5 0.1 0.2 0.2 0.4 0.1 0.2 0.3 0.4 0.1 0.2 0.2 0.4 0.2 0.1 0.3 0.3 0.2 0.2 0.4 0.3 0.2 0.2 0.4 0.3 0.2 0.1 0.4 0.2 0.3 0.1 0.5 0.2 0.3 0.1 0.5 0.2 0.3 0 0.6 0.1 0.3 0 0.6 0.1 0.3 0 0.6 0z"/>
		</g>
	</g>
</svg>